# xmcd CD database file
#
# Track frame offsets:
#	182
#	44072
#	64175
#	78600
#	119845
#
# Disc length: 2082 seconds
#
# Revision: 3
# Processed by: cddbd v1.5.2PL0 Copyright (c) Steve Scherf et al.
# Submitted via: CDex 1.51
#
DISCID=4b082005
DTITLE=Chick Corea - Fiesta
DYEAR=1994
DGENRE=Jazz
TTITLE0=Sea Breeze
TTITLE1=Moment's Notice
TTITLE2=Come Rain Or Come Shine
TTITLE3=Fiesta Piano Solo
TTITLE4=I Ain't Mad At You
EXTD=YEAR: 1994
EXTT0=
EXTT1=
EXTT2=
EXTT3=
EXTT4=
PLAYORDER=
